<svg width="60" height="60" viewBox="0 0 60 60" fill="none" xmlns="http://www.w3.org/2000/svg">
<path d="M30.0517 2.55469H30.0001C22.7215 2.55469 15.7411 5.4461 10.5943 10.5928C5.44757 15.7396 2.55615 22.7201 2.55615 29.9987C2.55615 37.2773 5.44757 44.2578 10.5943 49.4045C15.7411 54.5513 22.7215 57.4427 30.0001 57.4427C30.2388 57.4427 30.4678 57.3479 30.6365 57.1791C30.8053 57.0103 30.9001 56.7814 30.9001 56.5427C30.9001 56.304 30.8053 56.0751 30.6365 55.9063C30.4678 55.7375 30.2388 55.6427 30.0001 55.6427C23.1989 55.6427 16.6763 52.9409 11.8671 48.1317C7.05792 43.3225 4.35615 36.7999 4.35615 29.9987C4.35615 23.1975 7.05792 16.6748 11.8671 11.8656C16.6763 7.05646 23.1989 4.35469 30.0001 4.35469H30.0488C34.7308 4.36391 39.3209 5.65464 43.3215 8.08695C47.3222 10.5193 50.5807 14.0003 52.7437 18.1527C54.9067 22.3051 55.8918 26.9705 55.592 31.6429C55.2923 36.3153 53.7192 40.8165 51.0433 44.6585C50.6476 45.2245 50.1322 45.6966 49.5337 46.0413C48.9353 46.3861 48.2683 46.5951 47.5802 46.6535C46.8784 46.7151 46.1716 46.6222 45.5095 46.3814C44.8475 46.1406 44.2462 45.7577 43.7479 45.2597L42.9001 44.4089C43.2265 44.2139 43.5475 44.0057 43.8601 43.7813C44.4904 43.3394 45.0809 42.8434 45.6247 42.2987H45.6277C46.0913 41.8283 46.3503 41.1939 46.3484 40.5335C46.3465 39.8731 46.0838 39.2402 45.6175 38.7725L40.9567 34.1171C40.4884 33.65 39.8539 33.3877 39.1925 33.3877C38.531 33.3877 37.8965 33.65 37.4282 34.1171L36.7321 34.8107C36.5033 35.0378 36.2522 35.2414 35.9827 35.4185C35.088 35.997 34.0223 36.2522 32.9626 36.1416C31.9029 36.0311 30.9128 35.5614 30.1568 34.8107L24.0662 28.7201C23.4937 28.142 23.173 27.361 23.1742 26.5474C23.1753 25.7339 23.4981 24.9538 24.0722 24.3773L25.8818 22.5587C26.114 22.3276 26.2984 22.053 26.4241 21.7504C26.5499 21.4479 26.6147 21.1235 26.6147 20.7959C26.6147 20.4683 26.5499 20.1439 26.4241 19.8413C26.2984 19.5388 26.114 19.2641 25.8818 19.0331L21.2288 14.3807C20.9984 14.1468 20.7236 13.9613 20.4206 13.8351C20.1176 13.7089 19.7924 13.6445 19.4642 13.6457C18.8381 13.6433 18.2347 13.8793 17.7764 14.3057C17.7486 14.3275 17.7221 14.3509 17.6972 14.3759C17.1568 14.9169 16.663 15.5026 16.2212 16.1267C14.4991 18.5275 13.5921 21.4172 13.6336 24.3714C13.6751 27.3257 14.6627 30.1888 16.4516 32.5403C19.5927 36.7036 23.2999 40.4078 27.4658 43.5455C29.8749 45.3714 32.814 46.3615 35.837 46.3655C37.683 46.3634 39.5096 45.9889 41.2075 45.2645L42.4747 46.5335C43.1578 47.219 43.9834 47.7459 44.8929 48.0766C45.8023 48.4074 46.7735 48.534 47.7373 48.4475C48.688 48.3661 49.6092 48.0767 50.4355 47.5997C51.2619 47.1228 51.9733 46.4699 52.5193 45.6875C55.3835 41.576 57.0674 36.7588 57.3885 31.7583C57.7095 26.7578 56.6555 21.7648 54.3406 17.3208C52.0257 12.8768 48.5384 9.15128 44.2567 6.5483C39.9751 3.94532 35.0625 2.5642 30.0517 2.55469ZM28.5517 42.1079C24.5195 39.0727 20.931 35.4891 17.8904 31.4609C16.4458 29.5606 15.5998 27.2732 15.4603 24.8903C15.3207 22.5073 15.8939 20.1368 17.1068 18.0809L20.4386 21.4133C20.6074 21.5821 20.8364 21.677 21.0752 21.677C21.3139 21.677 21.5429 21.5821 21.7118 21.4133C21.8806 21.2445 21.9754 21.0155 21.9754 20.7767C21.9754 20.5379 21.8806 20.3089 21.7118 20.1401L18.1508 16.5767C18.3908 16.2767 18.6428 15.9869 18.9134 15.7121C18.9374 15.6933 18.9604 15.6733 18.9824 15.6521C19.1133 15.5261 19.2882 15.456 19.47 15.4566C19.6517 15.4573 19.8261 15.5287 19.9562 15.6557L24.6122 20.3117C24.6771 20.3762 24.7285 20.453 24.7636 20.5375C24.7986 20.6221 24.8165 20.7128 24.8162 20.8043C24.816 20.8945 24.7979 20.9838 24.7629 21.0669C24.7279 21.1501 24.6766 21.2254 24.6122 21.2885L22.7912 23.1149C21.8834 24.0297 21.374 25.2662 21.374 26.555C21.374 27.8437 21.8834 29.0803 22.7912 29.9951L28.8841 36.0833C29.8432 37.034 31.0752 37.6613 32.4081 37.8777C33.7411 38.094 35.1083 37.8885 36.3187 37.2899L39.9787 40.9499C40.1485 41.1138 40.3758 41.2045 40.6118 41.2025C40.8478 41.2004 41.0735 41.1058 41.2404 40.9389C41.4073 40.7721 41.5019 40.5463 41.504 40.3103C41.506 40.0744 41.4153 39.847 41.2513 39.6773L37.8241 36.2501C37.8841 36.1949 37.9496 36.1427 38.0042 36.0857L38.7001 35.3867C38.8307 35.2564 39.0077 35.1832 39.1921 35.1832C39.3766 35.1832 39.5536 35.2564 39.6841 35.3867L44.3449 40.0421C44.4752 40.1726 44.5488 40.3493 44.5497 40.5337C44.5506 40.7181 44.4787 40.8955 44.3497 41.0273C43.8783 41.499 43.3663 41.9285 42.8197 42.3107C40.7325 43.8083 38.2198 44.5968 35.6511 44.5603C33.0824 44.5238 30.5932 43.6642 28.5493 42.1079H28.5517Z" fill="black" style="fill:black;fill-opacity:1;"/>
</svg>
