<svg width="16" height="16" viewBox="0 0 16 16" fill="none" xmlns="http://www.w3.org/2000/svg">
<path d="M14.4 0.000244409C14.4 7.51131 8.31107 13.6002 0.799996 13.6002C0.531442 13.6002 0.264705 13.5924 0 13.5771V15.1795C0.264928 15.1933 0.53165 15.2002 0.799996 15.2002C9.19472 15.2002 16 8.39496 16 0.000244409C16 0.000318727 16 0.000170091 16 0.000244409H14.4C14.4 0.000318727 14.4 0.000170091 14.4 0.000244409Z" fill="#2F302C" style="fill:#2F302C;fill:color(display-p3 0.1843 0.1882 0.1725);fill-opacity:1;"/>
<path d="M13.6 2.14541e-05C13.6 -5.28644e-05 13.6 9.57723e-05 13.6 2.14541e-05C13.6 7.06926 7.86924 12.8002 0.799996 12.8002C0.531317 12.8002 0.264571 12.792 0 12.7756V11.1721C0.26424 11.1907 0.531011 11.2002 0.799996 11.2002C6.98559 11.2002 12 6.18583 12 0.000244409C12 0.000170091 12 0.000318727 12 0.000244409L13.6 2.14541e-05Z" fill="#2F302C" style="fill:#2F302C;fill:color(display-p3 0.1843 0.1882 0.1725);fill-opacity:1;"/>
<path d="M0 10.3699C0.264032 10.39 0.53082 10.4002 0.799996 10.4002C6.54376 10.4002 11.2 5.744 11.2 0.000244409C11.2 0.000318727 11.2 0.000170091 11.2 0.000244409L9.6 2.14541e-05C9.6 9.57723e-05 9.6 -5.28645e-05 9.6 2.14541e-05C9.6 4.86012 5.6601 8.80023 0.799996 8.80023C0.530326 8.80023 0.263488 8.7881 0 8.76436V10.3699Z" fill="#2F302C" style="fill:#2F302C;fill:color(display-p3 0.1843 0.1882 0.1725);fill-opacity:1;"/>
<path d="M0 7.96073C0.263124 7.98686 0.529998 8.00023 0.799996 8.00023C5.21827 8.00023 8.8 4.41852 8.8 0.000244409C8.8 0.000170091 8.8 0.000318727 8.8 0.000244409L7.2 2.14541e-05C7.2 -5.28646e-05 7.2 9.57722e-05 7.2 2.14541e-05C7.2 3.53464 4.33462 6.40024 0.799996 6.40024C0.529069 6.40024 0.262074 6.3834 0 6.35072V7.96073Z" fill="#2F302C" style="fill:#2F302C;fill:color(display-p3 0.1843 0.1882 0.1725);fill-opacity:1;"/>
<path d="M0 5.54353C0.261281 5.5809 0.52838 5.60024 0.799996 5.60024C3.89279 5.60024 6.4 3.09304 6.4 0.000244409C6.4 0.000318727 6.4 0.000170091 6.4 0.000244409L4.8 2.14541e-05C4.8 9.5772e-05 4.8 -5.28647e-05 4.8 2.14541e-05C4.8 2.20916 3.00914 4.00024 0.799996 4.00024C0.526025 4.00024 0.258487 3.9727 0 3.92023V5.54353Z" fill="#2F302C" style="fill:#2F302C;fill:color(display-p3 0.1843 0.1882 0.1725);fill-opacity:1;"/>
<path d="M0 3.09943C0.255695 3.16524 0.523758 3.20024 0.799996 3.20024C2.56731 3.20024 4 1.76755 4 0.000244409C4 0.00017009 4 0.000318727 4 0.000244409L0 2.14541e-05V3.09943Z" fill="#2F302C" style="fill:#2F302C;fill:color(display-p3 0.1843 0.1882 0.1725);fill-opacity:1;"/>
<path d="M16 5.01013C15.837 5.50497 15.6505 5.98914 15.4418 6.46131C15.6298 6.48348 15.8159 6.51157 16 6.54539V5.01013Z" fill="#2F302C" style="fill:#2F302C;fill:color(display-p3 0.1843 0.1882 0.1725);fill-opacity:1;"/>
<path d="M16 7.36032C15.6985 7.29911 15.3908 7.25486 15.078 7.22861C14.8021 7.77257 14.496 8.29865 14.1619 8.80463C14.2409 8.80174 14.3203 8.80028 14.4 8.80028C14.9525 8.80028 15.4886 8.87029 16 9.00191V7.36032Z" fill="#2F302C" style="fill:#2F302C;fill:color(display-p3 0.1843 0.1882 0.1725);fill-opacity:1;"/>
<path d="M8.04948 16H6.43947C6.41336 15.737 6.4 15.4702 6.4 15.2003C6.4 15.1306 6.40089 15.0612 6.40266 14.9919C6.9743 14.7782 7.53044 14.5327 8.06894 14.2576C8.02352 14.5652 8 14.88 8 15.2003C8 15.4711 8.01682 15.738 8.04948 16Z" fill="#2F302C" style="fill:#2F302C;fill:color(display-p3 0.1843 0.1882 0.1725);fill-opacity:1;"/>
<path d="M16 9.83219C15.493 9.6813 14.956 9.60028 14.4 9.60028C14.1121 9.60028 13.8293 9.62201 13.5531 9.6639C12.3112 11.3004 10.7614 12.6905 8.99015 13.748C8.86612 14.2112 8.8 14.698 8.8 15.2003C8.8 15.4718 8.81932 15.7388 8.85667 16H10.48C10.4275 15.7416 10.4 15.4742 10.4 15.2003C10.4 12.9911 12.1909 11.2003 14.4 11.2003C14.9689 11.2003 15.51 11.319 16 11.5331V9.83219Z" fill="#2F302C" style="fill:#2F302C;fill:color(display-p3 0.1843 0.1882 0.1725);fill-opacity:1;"/>
<path d="M16 12.4284C15.5293 12.1561 14.9829 12.0003 14.4 12.0003C12.6327 12.0003 11.2 13.433 11.2 15.2003C11.2 15.4764 11.235 15.7444 11.3007 16H16V12.4284Z" fill="#2F302C" style="fill:#2F302C;fill:color(display-p3 0.1843 0.1882 0.1725);fill-opacity:1;"/>
<path d="M5.63585 16H4.03029C4.02216 15.8931 4.01565 15.7858 4.01078 15.678C4.551 15.568 5.08132 15.4307 5.60025 15.2677C5.6021 15.5144 5.6141 15.7586 5.63585 16Z" fill="#2F302C" style="fill:#2F302C;fill:color(display-p3 0.1843 0.1882 0.1725);fill-opacity:1;"/>
<path d="M3.22811 16C3.22386 15.9398 3.22009 15.8794 3.21679 15.8189C2.69353 15.8982 2.16194 15.9522 1.62332 15.9795C1.62373 15.9863 1.62415 15.9932 1.62457 16H3.22811Z" fill="#2F302C" style="fill:#2F302C;fill:color(display-p3 0.1843 0.1882 0.1725);fill-opacity:1;"/>
<path d="M0.705247 16C0.468915 15.9986 0.233798 15.9921 0 15.9806V16H0.705247Z" fill="#2F302C" style="fill:#2F302C;fill:color(display-p3 0.1843 0.1882 0.1725);fill-opacity:1;"/>
</svg>
