<svg width="50" height="61" viewBox="0 0 50 61" fill="none" xmlns="http://www.w3.org/2000/svg">
<path d="M40.8228 24.1055C40.8228 15.1992 33.5806 7.95703 24.6743 7.95703C15.7681 7.95703 8.52588 15.1992 8.52588 24.1055C8.52588 33.0117 15.7681 40.2539 24.6743 40.2539C33.5806 40.2539 40.8228 33.0117 40.8228 24.1055ZM24.6743 38.543C16.7056 38.543 10.2368 32.0625 10.2368 24.1055C10.2368 16.1367 16.7173 9.66797 24.6743 9.66797C32.6431 9.66797 39.1118 16.1484 39.1118 24.1055C39.1118 32.0625 32.6313 38.543 24.6743 38.543Z" fill="black" style="fill:black;fill-opacity:1;"/>
<path d="M20.561 23.4492C22.6235 23.4492 24.2876 21.7734 24.2876 19.7227C24.2876 17.6719 22.6118 15.9961 20.561 15.9961C18.5103 15.9961 16.8345 17.6719 16.8345 19.7227C16.8345 21.7734 18.4985 23.4492 20.561 23.4492ZM20.561 17.6953C21.6743 17.6953 22.5884 18.5977 22.5884 19.7227C22.5884 20.8477 21.686 21.75 20.561 21.75C19.436 21.75 18.5337 20.8477 18.5337 19.7227C18.5337 18.5977 19.436 17.6953 20.561 17.6953Z" fill="black" style="fill:black;fill-opacity:1;"/>
<path d="M31.5181 16.8407C31.5181 16.5947 31.4126 16.3486 31.2017 16.1845C30.8384 15.8798 30.2993 15.9384 29.9946 16.3017L18.0415 30.8212C17.9126 30.9853 17.8423 31.1728 17.8423 31.3603C17.8423 31.6064 17.9478 31.8525 18.1587 32.0165C18.3228 32.1454 18.5103 32.2157 18.6978 32.2157C18.9438 32.2157 19.1899 32.1103 19.354 31.8993L31.3188 17.3681C31.4478 17.2275 31.5181 17.0282 31.5181 16.8407Z" fill="black" style="fill:black;fill-opacity:1;"/>
<path d="M28.7876 24.7617C26.7251 24.7617 25.061 26.4375 25.061 28.4883C25.061 30.5391 26.7368 32.2148 28.7876 32.2148C30.8501 32.2148 32.5142 30.5391 32.5142 28.4883C32.5142 26.4375 30.8501 24.7617 28.7876 24.7617ZM28.7876 30.5156C27.6743 30.5156 26.7603 29.6133 26.7603 28.4883C26.7603 27.375 27.6626 26.4609 28.7876 26.4609C29.9126 26.4609 30.8149 27.3633 30.8149 28.4883C30.8149 29.6016 29.9009 30.5156 28.7876 30.5156Z" fill="black" style="fill:black;fill-opacity:1;"/>
<path d="M49.1077 53.2969L40.9749 39.0938C41.303 38.9063 41.6546 38.7656 42.0296 38.6836C43.4944 38.3672 44.7718 37.4414 45.5218 36.1406C46.2718 34.8398 46.4358 33.2695 45.9788 31.8398C45.5452 30.4922 45.9437 29.0039 46.9983 28.043C48.1116 27.0352 48.7562 25.5937 48.7562 24.0937C48.7562 22.5937 48.1116 21.1523 46.9983 20.1445C45.9437 19.1953 45.5452 17.707 45.9788 16.3477C46.4358 14.918 46.2718 13.3477 45.5218 12.0469C44.7718 10.7461 43.4944 9.82031 42.0296 9.50391C40.6351 9.21094 39.5452 8.12109 39.2522 6.72656C38.9358 5.26172 38.0101 3.98438 36.7093 3.23438C35.4085 2.48438 33.8382 2.32031 32.4085 2.77734C31.0608 3.21094 29.5726 2.8125 28.6116 1.75781C27.6038 0.644531 26.1624 0 24.6624 0C23.1624 0 21.721 0.644531 20.7132 1.75781C19.764 2.8125 18.2757 3.21094 16.9163 2.77734C15.4866 2.32031 13.9163 2.48438 12.6155 3.23438C11.3147 3.98438 10.389 5.26172 10.0726 6.72656C9.79131 8.13281 8.70146 9.22266 7.30693 9.51562C5.84209 9.83203 4.56475 10.7578 3.81475 12.0586C3.06475 13.3594 2.90068 14.9297 3.35771 16.3594C3.79131 17.707 3.39287 19.1953 2.33818 20.1562C1.2249 21.1641 0.58037 22.6055 0.58037 24.1055C0.58037 25.6055 1.2249 27.0469 2.33818 28.0547C3.39287 29.0039 3.79131 30.4922 3.35771 31.8516C2.90068 33.2813 3.06475 34.8516 3.81475 36.1523C4.56475 37.4531 5.84209 38.3789 7.30693 38.6953C7.64678 38.7656 7.9749 38.8945 8.26787 39.0586L0.11162 53.2969C-0.0641608 53.6016 -0.0290045 53.9883 0.193652 54.2578C0.416308 54.5273 0.791308 54.6445 1.11943 54.5273L8.09209 52.207L9.79131 59.3672C9.87334 59.707 10.1546 59.9648 10.4944 60.0117C10.5413 60.0234 10.5765 60.0234 10.6116 60.0234C10.9163 60.0234 11.1976 59.8594 11.3499 59.5898L19.4241 45.5156C19.9046 45.7148 20.3499 46.0195 20.7132 46.4297C21.721 47.543 23.1624 48.1875 24.6624 48.1875C26.1624 48.1875 27.6038 47.543 28.6116 46.4297C28.9515 46.0547 29.3616 45.7617 29.7952 45.5625L37.8343 59.5898C37.9866 59.8594 38.2679 60.0234 38.5726 60.0234C38.6077 60.0234 38.6546 60.0234 38.6897 60.0117C39.0413 59.9648 39.3226 59.707 39.3929 59.3672L41.0921 52.207L48.0647 54.5273C48.4046 54.6445 48.7679 54.5273 48.9905 54.2578C49.2601 53.9883 49.2835 53.6016 49.1077 53.2969ZM10.9515 56.8711L9.5335 50.9063C9.4749 50.6719 9.32256 50.4727 9.12334 50.3555C8.9124 50.2383 8.66631 50.2148 8.44365 50.2969L2.70146 52.207L9.56865 40.2305C9.81474 40.6055 9.99053 41.0156 10.0843 41.4609C10.4007 42.9258 11.3265 44.2031 12.6272 44.9531C13.928 45.7031 15.4983 45.8672 16.928 45.4102C17.1507 45.3398 17.3851 45.293 17.6077 45.2578L10.9515 56.8711ZM27.3577 45.2813C26.678 46.043 25.6937 46.4766 24.6741 46.4766C23.6546 46.4766 22.6819 46.043 21.9905 45.2813C21.264 44.4727 20.3147 43.9219 19.2952 43.6758C19.2601 43.6641 19.2132 43.6523 19.178 43.6523C18.803 43.5703 18.4163 43.5234 18.0413 43.5234C17.4905 43.5234 16.9397 43.6055 16.4124 43.7813C15.4397 44.0977 14.3733 43.9805 13.4944 43.4766C12.6155 42.9609 11.9827 42.1055 11.7718 41.1094C11.5257 39.9375 10.8812 38.9063 10.0022 38.168C9.97881 38.1445 9.95537 38.1328 9.93193 38.1094C9.2874 37.582 8.52568 37.207 7.68193 37.0195C6.68584 36.8086 5.81865 36.1758 5.31475 35.2969C4.79912 34.418 4.69365 33.3516 5.01006 32.3789C5.65459 30.3867 5.06865 28.1953 3.51006 26.7891C2.74834 26.1094 2.31475 25.125 2.31475 24.1055C2.31475 23.0859 2.74834 22.1133 3.51006 21.4219C5.06865 20.0156 5.65459 17.8242 5.01006 15.832C4.69365 14.8594 4.81084 13.793 5.31475 12.9141C5.83037 12.0352 6.68584 11.4023 7.68193 11.1914C9.73271 10.7578 11.3382 9.15234 11.7718 7.10156C11.9827 6.10547 12.6155 5.23828 13.4944 4.73438C14.3733 4.21875 15.4397 4.11328 16.4124 4.42969C18.4046 5.07422 20.596 4.48828 22.0022 2.92969C22.6819 2.16797 23.6663 1.73438 24.6858 1.73438C25.7054 1.73438 26.678 2.16797 27.3694 2.92969C28.7757 4.48828 30.9671 5.07422 32.9593 4.42969C33.9319 4.11328 34.9983 4.23047 35.8772 4.73438C36.7562 5.25 37.389 6.10547 37.5999 7.10156C38.0335 9.15234 39.639 10.7578 41.6897 11.1914C42.6858 11.4023 43.553 12.0352 44.0569 12.9141C44.5726 13.793 44.678 14.8594 44.3616 15.832C43.7171 17.8242 44.303 20.0156 45.8616 21.4219C46.6233 22.1016 47.0569 23.0859 47.0569 24.1055C47.0569 25.125 46.6233 26.0977 45.8616 26.7891C44.303 28.1953 43.7171 30.3867 44.3616 32.3789C44.678 33.3516 44.5608 34.418 44.0569 35.2969C43.5413 36.1758 42.6858 36.8086 41.6897 37.0195C40.7991 37.207 39.9788 37.6289 39.3226 38.2031C39.3108 38.2148 39.2874 38.2266 39.2757 38.25C38.4437 38.9883 37.846 39.9844 37.5999 41.1094C37.389 42.1055 36.7562 42.9727 35.8772 43.4766C34.9983 43.9922 33.9319 44.0977 32.9593 43.7813C31.9983 43.4766 31.0022 43.4531 30.053 43.6758C30.0179 43.6875 29.9827 43.6875 29.9476 43.6992C28.9632 43.9688 28.0608 44.5078 27.3577 45.2813ZM40.7757 50.2969C40.553 50.2266 40.2952 50.25 40.096 50.3555C39.8851 50.4727 39.7327 50.6719 39.6858 50.9063L38.2679 56.8711L31.5999 45.2461C31.8694 45.2695 32.1507 45.3164 32.4202 45.4102C33.8499 45.8672 35.4202 45.7031 36.721 44.9531C38.0218 44.2031 38.9476 42.9258 39.264 41.4609C39.346 41.0508 39.5101 40.6758 39.721 40.3242L46.5179 52.207L40.7757 50.2969Z" fill="black" style="fill:black;fill-opacity:1;"/>
</svg>
